<?xml version="1.0" encoding="utf-8"?>
<!-- Generator: Adobe Illustrator 27.1.1, SVG Export Plug-In . SVG Version: 6.00 Build 0)  -->
<svg version="1.1" id="Calque_1" xmlns="http://www.w3.org/2000/svg" xmlns:xlink="http://www.w3.org/1999/xlink" x="0px" y="0px"
	 viewBox="0 0 1417.32 1417.32" style="enable-background:new 0 0 1417.32 1417.32;" xml:space="preserve">
<style type="text/css">
	.st0{fill:#FFFFFF;}
	.st1{fill:none;stroke:#462775;stroke-width:59;stroke-miterlimit:10;}
	.st2{fill:#462775;}
	.st3{fill:none;stroke:#462775;stroke-width:59;stroke-linecap:round;stroke-linejoin:round;stroke-miterlimit:10;}
</style>
<rect x="-18.51" y="-23.11" class="st0" width="1455.32" height="1455.32"/>
<g>
	<g>
		<path class="st1" d="M448.44,1031.8c-65.98-74.46-102.31-172.59-102.31-276.33c0-218.85,162.64-396.9,362.54-396.9
			c86.39,0,170.06,33.78,235.57,95.11c80.69,75.55,126.97,185.55,126.97,301.79c0,103.73-36.33,201.88-102.31,276.33
			c-9.2,10.39-22,15.68-34.85,15.68"/>
		<path class="st2" d="M1011.41,972.66H403.93c-25.7,0-46.53,28.5-46.53,54.2s20.83,61.87,46.53,61.87h607.47
			c25.7,0,46.53-36.17,46.53-61.87S1037.1,972.66,1011.41,972.66z"/>
		<path class="st2" d="M1005.17,940.27c-4.58-0.54-9.16-1.69-13.54-3.49l-272.34-81.33c-43.97-18.1-70.7-53.92-66.54-89.14
			l4.93-41.75c0.51-4.28,2.39-8.34,5.48-11.85l227.9-272.03c11.01-12.49,34.59-15.3,52.61-6.28c18.03,9.03,23.72,26.49,12.68,38.99
			L733.18,740.06l-4.16,35.25c-1.49,12.64,8.1,25.5,23.88,31.99l272.33,81.33c18.98,7.81,26.86,24.93,17.59,38.22
			C1035.68,937.09,1020.46,942.08,1005.17,940.27z"/>
		<circle class="st2" cx="478.04" cy="861.3" r="41.56"/>
	</g>
	<g>
		<rect x="478.04" y="1009.64" class="st0" width="191.88" height="48.25"/>
		<rect x="761.58" y="1009.64" class="st0" width="205.48" height="48.25"/>
	</g>
</g>
<polyline class="st3" points="823.04,1200.89 1212.15,1200.89 1212.15,818.4 "/>
<polyline class="st3" points="601.56,167.33 212.45,167.33 212.45,549.82 "/>
</svg>
