<?xml version="1.0" encoding="utf-8"?>
<!-- Generator: Adobe Illustrator 27.1.1, SVG Export Plug-In . SVG Version: 6.00 Build 0)  -->
<svg version="1.1" id="Calque_1" xmlns="http://www.w3.org/2000/svg" xmlns:xlink="http://www.w3.org/1999/xlink" x="0px" y="0px"
	 viewBox="0 0 841.8898315 595.2755737" style="enable-background:new 0 0 841.8898315 595.2755737;" xml:space="preserve">
<style type="text/css">
	.st0{fill:#FFFFFF;}
	.st1{fill:#452774;}
	.st2{fill:#FFFFFF;stroke:#452774;stroke-width:10;stroke-miterlimit:10;}
	.st3{fill:none;stroke:#452774;stroke-width:10;stroke-linecap:round;stroke-linejoin:round;stroke-miterlimit:10;}
	.st4{fill:#FFFFFF;stroke:#452774;stroke-width:10;stroke-linecap:round;stroke-miterlimit:10;}
	.st5{fill:none;stroke:#452774;stroke-width:8;stroke-linecap:round;stroke-linejoin:round;stroke-miterlimit:10;}
</style>
<polygon class="st0" points="376.4599304,284.5092163 376.4599304,180.0493774 255.7047729,180.0493774 254.3911438,177.2284546 
	238.4250031,160.590744 224.527359,160.590744 184.1403351,160.590744 174.1459503,180.0493774 108.6551666,180.0493774 
	108.6551666,155.7436981 59.1500626,155.7436981 59.1500626,180.0493774 35.3784065,180.0493774 35.3784065,439.9588928 
	376.4599304,439.9588928 376.4599304,397.6689758 340.9606018,376.7133484 344.3788147,302.0413208 "/>
<g>
	<g>
		<path class="st1" d="M215.7660065,375.6689148c9.555191,0,18.9096375-2.1889648,28.0688171-6.5696411
			c9.1537018-4.3761292,18.4095917-11.7432556,27.769516-22.0959167l29.2622986,27.7695312
			c-11.7478027,15.130249-25.1334534,26.5751038-40.1615295,34.3391724
			c-15.032608,7.7631226-30.5086975,11.6446838-46.4318695,11.6446838c-14.3327789,0-27.7695312-2.9389954-40.3111572-8.8088074
			c-12.5407257-5.868866-23.4399567-13.7816467-32.6967621-23.7383118
			c-9.2559052-9.9520874-16.5253983-21.5456848-21.7975388-34.7871704
			c-5.2767029-13.2360229-7.9127655-27.3215332-7.9127655-42.2510376c0-14.9304199,2.733696-28.9648438,8.2111435-42.1032104
			c5.4728775-13.1374664,12.8865356-24.6808929,22.2455444-34.6366425
			c9.3553619-9.9520874,20.4033051-17.8137665,33.1447754-23.5895844
			c12.7368927-5.7712555,26.2767487-8.6591492,40.6095276-8.6591492c13.3345642,0,26.0249176,2.4909821,38.0710907,7.4647522
			c12.0425415,4.9783325,23.836853,13.2405701,35.3839417,24.7839813l-26.2767639,31.9494781
			c-8.3607941-7.7631531-16.2735596-12.988739-23.738327-15.6759186c-7.4647522-2.6880798-15.279892-4.0312042-23.4399414-4.0312042
			c-8.1646118,0-15.8766479,1.693512-23.141571,5.0759583c-7.2685852,3.3870239-13.5863953,7.9638672-18.9607239,13.7351379
			c-5.3752441,5.7767029-9.6062927,12.5927124-12.6903687,20.4544067
			c-3.0886383,7.8662415-4.6288605,16.2735596-4.6288605,25.2319946c0,8.9575195,1.5402222,17.3182983,4.6288605,25.0823669
			c3.0840759,7.7631226,7.3151245,14.5845947,12.6903687,20.4534912
			c5.3743286,5.8743591,11.6921387,10.5022888,18.9607239,13.8847656
			C199.8893585,373.97995,207.6013947,375.6689148,215.7660065,375.6689148z"/>
		<path class="st1" d="M396.1173706,264.5899048c11.1464844,0,21.2984314,2.2391357,30.4576111,6.7183533
			c9.1536865,4.4792175,17.019928,10.3526611,23.5895691,17.6176147
			c6.5687561,7.2685852,11.6447144,15.629364,15.2279053,25.0823364c3.5831909,9.456665,5.3752441,19.1614685,5.3752441,29.1126709
			c0,5.9719849-0.7984009,12.345459-2.3887939,19.1103516H362.6742249
			c3.9801025,6.7703857,9.653717,12.4951172,17.0208435,17.1695862c7.3616638,4.6799622,15.3264465,7.0176697,23.88797,7.0176697
			c8.5560608,0,16.0728149-0.695282,22.5439148-2.0904236c6.4665527-1.390564,12.5881653-3.1817322,18.3639832-5.3752441
			l13.7351379,25.3816223c-7.3671265,5.1781616-15.7790222,9.1582947-25.2311096,11.9440002
			c-9.45755,2.78479-19.5583801,4.1799316-30.3079529,4.1799316c-11.7478027,0-22.693573-2.0438843-32.846405-6.1216431
			c-10.1519165-4.0777283-19.0118103-9.6017151-26.5751343-16.5719299
			c-7.5678406-6.9656372-13.539856-15.2287903-17.9159546-24.7839661
			c-4.3806763-9.5552063-6.5687256-19.7071228-6.5687256-30.4566956c0-10.5488586,1.9873047-20.5520325,5.9719849-30.009613
			c3.979187-9.4520569,9.5031738-17.71521,16.5719299-24.7830505c7.0641785-7.064209,15.2753296-12.6912842,24.6343384-16.8712158
			C375.3134766,266.6803284,385.3677979,264.5899048,396.1173706,264.5899048z M429.8598022,330.2817688
			c-2.3887939-8.5569458-6.6718445-15.5271606-12.8400269-20.9024048
			c-6.1727295-5.3743286-13.1383667-8.0624084-20.9024048-8.0624084c-7.9638672,0-15.181366,2.6880798-21.6478882,8.0624084
			c-6.4710999,5.3752441-10.899231,12.345459-13.2880249,20.9024048H429.8598022z"/>
		<path class="st1" d="M577.5490723,268.7698364c5.5513306,0,11.7085571,0.7984009,18.4533691,2.3887939
			c6.744873,1.5958557,13.09552,4.5814209,19.0483398,8.9584351c5.9528198,4.3806763,10.9639893,10.4502869,15.0335693,18.2143555
			c4.069519,7.7631226,6.102478,17.8183289,6.102478,30.1582947v88.3854675h-41.2062988V330.216095
			c0-4.5631714-0.74823-8.4356079-2.2409668-11.6127625c-1.4927979-3.1771545-3.4819336-5.7110291-5.9710693-7.5952454
			c-2.4891968-1.8851318-5.3287354-3.2756958-8.5076904-4.1717224c-3.1899414-0.890564-6.3762207-1.338562-9.5552368-1.338562
			c-2.5913086,0-5.4272461,0.447998-8.5112915,1.338562c-3.0877686,0.8960266-5.9710693,2.3331299-8.6610107,4.3204346
			c-2.6862183,1.9882507-4.9272461,4.567749-6.7156372,7.7449036c-1.7920532,3.1780701-2.6898804,6.9473877-2.6898804,11.3143921
			v86.6590881h-41.2062988V268.7698364h35.2352295l5.9710693,11.347229
			c4.7593384-3.3824463,10.1209106-6.1216431,16.0737305-8.2120667
			C564.1542969,269.8154907,570.6035156,268.7698364,577.5490723,268.7698364z"/>
		<path class="st1" d="M811.4594727,198.897995v217.9771881h-35.2333984l-5.9729004-12.8399963
			c-4.5805054,4.7775879-10.8983154,8.7111511-18.9606934,11.7952271
			c-8.062439,3.0841064-16.4733887,4.6279602-25.2310791,4.6279602c-10.5534058,0-20.3057251-2.0438843-29.2623291-6.1216431
			c-8.9584351-4.0777283-16.6759644-9.6528015-23.1415405-16.7215576
			c-6.4711304-7.0632935-11.5480347-15.3264465-15.2288208-24.7830811
			c-3.6863403-9.4529724-5.5239868-19.5583801-5.5239868-30.3079529c0-10.7496033,1.8376465-20.8504028,5.5239868-30.3079834
			c3.6807861-9.4520569,8.7576904-17.71521,15.2288208-24.7839661c6.4655762-7.0632935,14.1831055-12.6392822,23.1415405-16.7215881
			c8.956604-4.0777283,18.7089233-6.120697,29.2623291-6.120697c9.3544312,0,17.663208,1.0958557,24.9317627,3.283905
			c7.2649536,2.193512,13.6849365,5.8743591,19.2600098,11.0488586V198.897995H811.4594727z M770.2531738,343.1208801
			c0-7.7631226-0.99823-14.2807617-2.9855347-19.5574646c-1.9927979-5.2721558-4.7775879-9.5552063-8.3598633-12.8400269
			c-3.5841064-3.2848206-7.7175293-5.6736145-12.3928833-7.1663818c-4.6790771-1.4927673-9.704834-2.2400513-15.0791626-2.2400513
			s-10.4038086,1.0967712-15.0791626,3.2848206c-4.6790771,2.1925964-8.7613525,5.1279602-12.2432861,8.8087769
			c-3.4837646,3.6863098-6.2229004,8.062439-8.2102051,13.1383972c-1.9927979,5.0759583-2.9873657,10.4046631-2.9873657,15.9751892
			c0,5.7758179,0.9945679,11.151062,2.9873657,16.1239014c1.9873047,4.9783325,4.7264404,9.3079224,8.2102051,12.9896545
			c3.4819336,3.6853943,7.564209,6.6198425,12.2432861,8.8088074c4.675354,2.192627,9.704834,3.283905,15.0791626,3.283905
			c10.7504883,0,19.8567505-3.3313599,27.3223877-10.0032043
			C766.2219849,367.0608521,770.0524292,356.8569031,770.2531738,343.1208801z"/>
	</g>
	<circle class="st2" cx="188.8332367" cy="327.373291" r="12.0926933"/>
	<circle class="st1" cx="83.9026031" cy="311.4697876" r="8.5508251"/>
	<g>
		<path class="st0" d="M226.6938477,297.0410156c-4.7163086,0-9.2080078-1.4873047-12.9897461-4.3017578l-9.8134766-7.3027344
			l-8.2749023-75.9677734c7.7133789-1.5795898,15.2758789-2.378418,22.5385742-2.378418
			c34.1083984,0,55.2626953,17.5112305,64.8364258,27.9492188c9.3803711,10.2270508,14.1196289,20.3378906,15.1176758,25.7607422
			l-60.9267578,33.5439453c-3.2045898,1.7641602-6.831543,2.6967773-10.4873047,2.6967773
			C226.6938477,297.0410156,226.6938477,297.0410156,226.6938477,297.0410156z"/>
		<path class="st1" d="M218.1542511,212.0904541c29.4865417,0,48.7023163,13.4402008,59.6300507,24.7151184
			c8.2967224,8.5603485,12.5984497,16.6068115,14.4237061,21.5355225l-57.4378662,31.6230774
			c-2.468277,1.3589783-5.2611542,2.0772705-8.0766907,2.0772705c-3.632309,0-7.0917358-1.1456909-10.0043182-3.3131714
			l-8.0639648-6.0010986l-7.5365143-69.1874237C206.9194946,212.5765381,212.6320496,212.0904541,218.1542511,212.0904541
			 M218.1542664,202.0904541c-8.6627655,0-17.9901123,1.0656128-27.9938202,3.4710846l8.9958038,82.5842133l11.5627747,8.6048584
			c4.7126923,3.5071411,10.3304749,5.290863,15.9744263,5.290863c4.4246979,0,8.8652954-1.0960388,12.8996887-3.3171997
			l63.6782837-35.0588684C304.4268494,250.3138123,276.4084473,202.0904541,218.1542664,202.0904541L218.1542664,202.0904541z"/>
	</g>
	<polyline class="st3" points="376.4598999,246.8445282 376.4598999,180.0493469 35.3783798,180.0493469 35.3783798,439.9589233 
		376.4598999,439.9589233 376.4598999,431.4616089 	"/>
	<polyline class="st3" points="59.1500435,180.0493469 59.1500435,155.7437744 108.6551666,155.7437744 108.6551666,180.0493469 	
		"/>
	<line class="st4" x1="35.3783798" y1="236.0122986" x2="122.8494186" y2="236.0122986"/>
	<line class="st4" x1="305.4615479" y1="236.0122986" x2="376.4598999" y2="236.0122986"/>
</g>
<polyline class="st5" points="167.0493469,180.0493469 186.5080261,160.590683 240.0941925,160.590683 "/>
<polyline class="st5" points="261.0496826,180.0493469 241.5910187,160.590683 188.004837,160.590683 "/>
</svg>
